<?xml version="1.0" encoding="UTF-8"?>
<svg id="Calque_1" data-name="Calque 1" xmlns="http://www.w3.org/2000/svg" viewBox="0 0 583.29 255.59">
  <defs>
    <style>
      .cls-1 {
        fill: #1d1d1b;
      }
    </style>
  </defs>
  <path class="cls-1" d="M136.29,239.66c29.83-1.06,62.57-1.96,92.53-2.56,19.13-.57,38.67-1.4,57.83-.3,11.6.58,23.14,1.31,34.7,2.87.2.03.34.21.32.42-.02.17-.16.29-.32.32-11.56,1.56-23.1,2.29-34.7,2.87-19.17,1.09-38.69.27-57.83-.3-11.52-.22-34.75-.77-46.27-1.1-15.42-.49-30.84-.88-46.27-1.47-.2,0-.36-.18-.35-.38,0-.19.16-.34.35-.35h0Z"/>
  <path class="cls-1" d="M576.32,240.39c-29.83,1.06-62.57,1.96-92.53,2.56-19.13.57-38.67,1.4-57.83.3-11.6-.58-23.14-1.31-34.7-2.87-.2-.03-.34-.21-.32-.42.02-.17.16-.29.32-.32,11.56-1.56,23.1-2.29,34.7-2.87,19.17-1.09,38.69-.27,57.83.3,11.52.22,34.75.77,46.27,1.1,15.42.49,30.85.88,46.27,1.47.2,0,.36.18.35.38,0,.19-.16.34-.35.35h0Z"/>
  <path class="cls-1" d="M356.31,228.8c4.77,2.29,9.36,5.2,13.55,8.55,1.4,1.12,1.63,3.15.54,4.56-.97,1.25-1.96,2.52-2.98,3.73-2.36,2.89-5.2,5.89-7.82,8.56-1.79,1.86-4.79,1.86-6.59,0-3.8-3.85-7.53-7.99-10.8-12.31-1.09-1.41-.84-3.43.55-4.53,1.18-.94,2.38-1.87,3.59-2.7,3.17-2.2,6.58-4.27,9.95-5.86h0ZM356.31,229.32c-2.62,2.77-7.94,8.27-10.62,10.97,0,0,0-.61,0-.61l10.98,10.86h-.73l10.98-10.86v.61c-2.68-2.7-8-8.2-10.62-10.97h0Z"/>
  <g>
    <path class="cls-1" d="M211.48,122.54c4.77-.88,8.12-2.94,10.06-6.18,1.18-1.88,1.77-3.97,1.77-6.27,0-1.65-.32-3.44-.97-5.39-.24-.71-.56-1.44-.97-2.21-.35-.59-.77-1.21-1.24-1.85-.35-.41-.71-.79-1.06-1.15-.12-.12-.24-.23-.35-.35l-.09-.09c.35.94.53,1.85.53,2.74,0,1.47-.5,2.8-1.5,3.97-1.41,1.71-3.35,2.59-5.83,2.65h-.18c-1.65,0-3-.65-4.06-1.94-1.06-1.29-1.68-2.91-1.85-4.86v-.97c0-2.77.82-5.68,2.47-8.74.65-1.18,4.38-6.89,11.21-17.13,5.59-8.36,8.39-17.83,8.39-28.43,0-2.3-.12-4.62-.35-6.97-1.18-10.83-4.53-19.66-10.06-26.49-3.77-4.65-8.36-8.59-13.77-11.83-.65,0-10.01,7.06-28.07,21.19-4.06-8.83-11.1-15.89-21.1-21.19-.65,0-11.74,8.86-33.28,26.57v-8.3l-.27.09c-.82-5.53-3.8-10.21-8.92-14.04h-.09l-.09-.09-13.07,9.71c4.18,2.53,6.27,6.33,6.27,11.39v80.69c0,2.24.47,4.33,1.41,6.27.82,1.59,1.91,3.06,3.27,4.41.53.47,1.12.94,1.77,1.41.47.41.97.76,1.5,1.06l.62.35.44.26.18.09.09.09h.09l10.44,5.38c.93.52,1.85,1.29,2.78,2.32.82.98,1.47,2.01,1.93,3.09.57,1.39.85,2.91.85,4.55v9.34c-4.07,1.8-8.13,3.99-12.19,6.56-4.07,2.52-7.23,5.02-9.49,7.49-2.88,3.09-4.32,6-4.32,8.72v26.4h-.08c.05,1.34.18,2.52.39,3.55h.08c1.08,6.28,5.09,10.78,12.04,13.51l14.2-10.5c.57,2.11,1.52,4.09,2.86,5.94,1.29,2.01,2.83,3.53,4.63,4.55h.08l11.42-8.49c-1.08-.67-2.01-1.42-2.78-2.24-1.8-2.01-2.7-4.5-2.7-7.49v-63.6c0-1.96-.44-3.81-1.31-5.56-.67-1.34-1.62-2.6-2.86-3.78-.46-.46-.95-.88-1.47-1.24-.41-.36-.85-.67-1.31-.93l-.54-.31-.39-.23-.15-.08-.08-.08-8.87-5.17c-1.06-.59-2.15-1.5-3.27-2.74-2.06-2.35-3.09-5.15-3.09-8.39V34.78l22.34-16.77c7.53,5.77,12.86,13.04,15.98,21.81,1.94,5.59,2.91,11.54,2.91,17.83,0,2.41-.15,4.92-.44,7.5-1.12,9.3-4.36,18.42-9.71,27.37-2.3,3.83-5.18,7.59-8.65,11.3-.12.12-.18.3-.18.53,0,1.12,1.18,3.39,3.53,6.8,2.65,3.83,4.86,6.56,6.62,8.21l17.92-13.33c-.29-.23-.53-.44-.71-.62l-.88-.79c-.65-.65-1.3-1.27-1.94-1.85-1.65-1.65-3.06-3.12-4.24-4.41-2.47-2.83-3.71-4.88-3.71-6.18,0-.41.15-.76.44-1.06,3.06-3,6-6.71,8.83-11.12,5.24-8.06,8.62-17.13,10.15-27.19.53-3.18.79-6.27.79-9.27,0-5.47-.83-10.74-2.47-15.8l13.07-9.71c7.59,5.77,12.92,13.04,15.98,21.81,2,5.59,3,11.57,3,17.92,0,2.41-.15,4.89-.44,7.42-.71,5.59-4.03,14.01-9.98,25.25-2.94,6.3-5.74,11.12-8.39,14.48l-3.97,5.12c6.77,5.41,11.83,9.12,15.19,11.12,1.94,1.12,4.09,1.68,6.44,1.68.88,0,1.82-.09,2.83-.26ZM130.29,195.73l-7.33,5.4c-2.98-1.7-4.48-3.65-4.48-5.87v-27.71c0-4.17,2.47-8.08,7.41-11.73,2.98,1.7,4.48,3.65,4.48,5.87l-.08,34.04Z"/>
    <path class="cls-1" d="M257.57,109.83c.82.12,1.62.21,2.38.26l18.01-13.77c-2.24.41-4.36.62-6.36.62-6.36,0-11.62-1.91-15.8-5.74-1.94-1.82-3.62-4.03-5.03-6.62-.94-1.88-1.71-3.85-2.3-5.92l28.43-21.81.44-.35-17.66-24.46c-13.95,3.65-22.46,13.13-25.51,28.43-.82,4.12-1.24,8.15-1.24,12.1,0,3.35.29,6.62.88,9.8,1.82,10.65,6.09,18.33,12.8,23.04,2.35,1.65,4.94,2.88,7.77,3.71,1.06.29,2.12.53,3.18.71ZM246.53,61.71c0-7.36,1.32-13.3,3.97-17.83l12.01,16.6-15.19,11.65c-.53-3.77-.79-7.24-.79-10.42Z"/>
    <path class="cls-1" d="M283.35,46.26c2.12,2.41,3.18,5.3,3.18,8.65v37.7c0,7,3.06,12.8,9.18,17.39h.09l.09.09,13.07-9.71c-4.18-2.53-6.27-6.33-6.27-11.39v-36.81l8.56-6.27c3.35,1.94,5.03,4.18,5.03,6.71v39.99c0,7,3.03,12.8,9.09,17.39h.09l.09.09,13.07-9.71c-4.18-2.53-6.27-6.33-6.27-11.39v-36.81l8.47-6.27c3.36,1.94,5.03,4.18,5.03,6.71v39.99c0,7,3.06,12.8,9.18,17.39h.09l.09.09,13.07-9.71c-4.24-2.53-6.36-6.33-6.36-11.39v-36.2c0-3.94-.94-7.44-2.83-10.51-2.35-3.83-6.12-6.74-11.3-8.74l-16.6,12.36c-2-5.65-6.33-9.77-12.98-12.36l-15.8,11.65c-.29-1.82-.97-3.53-2.03-5.12-.82-1.29-1.85-2.47-3.09-3.53-.47-.41-.97-.82-1.5-1.24-.47-.29-.91-.59-1.32-.88l-.53-.27-.35-.18-.26-.18h-.09l-13.07,9.71c1.06.59,2.12,1.5,3.18,2.74Z"/>
    <path class="cls-1" d="M386.11,105.41c2.35,1.65,4.94,2.88,7.77,3.71,1.06.29,2.12.53,3.18.71.82.12,1.62.21,2.38.26l16.69-12.71,1.59-.79c.65-7,.97-13.48.97-19.42,0-26.13-6.5-41.08-19.51-44.85-7.65,2-13.71,5.83-18.19,11.48-3.53,4.53-5.97,10.15-7.33,16.86-.83,4.12-1.24,8.15-1.24,12.1,0,3.3.29,6.53.88,9.71,1.82,10.59,6.09,18.25,12.8,22.95ZM390,44.14c8.83.06,13.3,11.77,13.42,35.14v16.6c-4.47-1.35-8.15-4-11.04-7.95-2.77-3.77-4.41-7.71-4.94-11.83-.94-5.24-1.41-10.03-1.41-14.39,0-7.18,1.32-13.04,3.97-17.57Z"/>
    <path class="cls-1" d="M457.89,52.35l13.33-9.89c-2.35-3.88-6.15-6.86-11.39-8.92l-15.8,11.65c-.29-1.82-.97-3.53-2.03-5.12-.83-1.29-1.85-2.47-3.09-3.53-.47-.41-.97-.82-1.5-1.24-.47-.29-.91-.59-1.32-.88l-.53-.27-.35-.18-.27-.18h-.09l-13.07,9.71c1.06.59,2.12,1.5,3.18,2.74,2.12,2.41,3.18,5.3,3.18,8.65v41.23c0,2.24.5,4.33,1.5,6.27.76,1.59,1.82,3.03,3.18,4.33.59.53,1.18,1.03,1.77,1.5.47.35.97.71,1.5,1.06l.62.35.44.26.18.09h.09l.09.09,13.15-9.71c-1.06-.59-2.12-1.53-3.18-2.83-.94-1.06-1.68-2.24-2.21-3.53-.65-1.65-.97-3.38-.97-5.21v-36.64l8.56-6.27c3.24,1.88,4.91,4.03,5.03,6.44Z"/>
    <path class="cls-1" d="M476.6,46.26c2.12,2.41,3.18,5.3,3.18,8.65v41.23c0,2.24.5,4.33,1.5,6.27.76,1.59,1.85,3.03,3.27,4.33.53.53,1.09,1.03,1.68,1.5.47.35.97.71,1.5,1.06l.62.35.44.26.18.09h.09l.09.09,13.15-9.71c-1.06-.59-2.12-1.5-3.18-2.74-2.12-2.41-3.18-5.3-3.18-8.65v-41.23c0-2.24-.5-4.35-1.5-6.36-.77-1.53-1.85-2.97-3.27-4.33-.53-.47-1.09-.94-1.68-1.41-.53-.41-1.03-.76-1.5-1.06l-.62-.35-.44-.26-.18-.09-.18-.09h-.09l-13.07,9.71c1.06.59,2.12,1.5,3.18,2.74Z"/>
    <path class="cls-1" d="M486.76,29.93c2.41,0,4.83-.82,7.24-2.47,3.24-2.24,5.83-5.3,7.77-9.18-1.35.35-2.65.53-3.88.53-2.24,0-4.3-.56-6.18-1.68-1-.65-1.94-1.44-2.83-2.38-.65-.71-1.21-1.44-1.68-2.21l-13.24,9.8c4.3,5.06,8.56,7.59,12.8,7.59Z"/>
    <path class="cls-1" d="M561.98,8.83l-8.12-8.83-18.45,20.57c-.77.65-1.15,1.47-1.15,2.47,0,.94.32,1.8.97,2.56.65.65,1.47,1.03,2.47,1.15h.27c.82,0,1.59-.29,2.29-.88"/>
    <path class="cls-1" d="M518.89,110.09l23.04-16.07c2.24,4.83,5.33,8.62,9.27,11.39,2.35,1.65,4.94,2.88,7.77,3.71,1.06.29,2.12.53,3.18.71.82.12,1.62.21,2.38.26l18.01-13.77c-2.24.41-4.36.62-6.36.62-6.36,0-11.62-1.91-15.8-5.74-1.94-1.82-3.62-4.03-5.03-6.62-.94-1.88-1.71-3.85-2.29-5.92l28.43-21.81.44-.35-17.66-24.46c-7,1.83-12.62,5.12-16.86,9.89-2.47-3.65-6.18-6.44-11.12-8.39l-18.45,13.68c-1.24-1.12-2.09-2.38-2.56-3.8-.41-1-.62-2.06-.62-3.18,0-1,.15-2.03.44-3.09-3.12,1.53-5.59,3.56-7.42,6.09-1.3,1.88-1.94,3.77-1.94,5.65,0,.41.03.82.09,1.24.47,2.94,2.47,5.89,6,8.83l.18-.26,17.22-12.8c3.41,1.94,5.12,4.18,5.12,6.71l-.09,7.5-26.93,20.04c-1.83,1.35-2.77,4.18-2.83,8.48,0,2.12.18,4.12.53,6h.09c1.24,7.18,5.83,12.33,13.77,15.45ZM555.09,43.88l12.01,16.6-15.19,11.65c-.53-3.77-.79-7.24-.79-10.42,0-7.36,1.32-13.3,3.97-17.83ZM522.51,76.28l11.74-9.01v24.28l-8.3,6.18c-3.41-1.94-5.12-4.18-5.12-6.71v-.18c-.06-5.3-.09-8.8-.09-10.51s.59-3.06,1.77-4.06Z"/>
    <path class="cls-1" d="M99.18,212.87c-3.65-5.2-8-19.08-13.04-41.64-5.04-22.56-8.05-35.24-9.03-38.01-2.83-7.98-6.64-13.66-11.42-17.06-2.62-1.9-5.61-2.86-8.95-2.86-1.39,0-2.86.18-4.4.54-4.12.88-8.57,2.93-13.35,6.17-3.45,2.32-6.82,5.04-10.11,8.18-1.08,1.08-2.01,2.06-2.78,2.93-.31.31-.54.57-.69.77l-.15.23c5.25-3.24,9.93-5.35,14.05-6.33,1.8-.41,3.52-.62,5.17-.62,3.5,0,6.66.93,9.49,2.78l-34.35,76.57c-2.93.36-5.76,1.31-8.49,2.86-2.21,1.18-4.27,2.73-6.17,4.63-2.16,2.16-3.81,4.27-4.94,6.33,4.22-1.7,8.44-2.55,12.66-2.55,1.34,0,2.67.08,4.01.23,3.96.51,7.72,1.75,11.27,3.71l12.58-9.34c-3.6-2.37-7.15-4.04-10.65-5.02l11.19-23.39c1.34-.77,3.01-1.16,5.02-1.16,2.62,0,5.87.72,9.73,2.16,2.78,1.08,5.43,1.62,7.95,1.62,3.34,0,6.41-.98,9.19-2.93,5.04,21.77,9.7,35.97,13.97,42.61,4.89,5.87,9.88,8.8,14.97,8.8,1.8,0,3.65-.39,5.56-1.16,6.89-2.83,10.47-4.25,10.73-4.25-7.05-1.96-13.38-6.9-18.99-14.82ZM71.01,167.71c0,.21-.03.41-.08.62-.1.72-.31,1.39-.62,2.01-.88,1.96-2.42,3.14-4.63,3.55-.41.05-.85.08-1.31.08-2.16,0-5.17-.59-9.03-1.78-4.68-1.44-7.64-2.29-8.88-2.55l14.51-33.34c5.14,10.7,8.41,20.79,9.8,30.26l.23.77v.39Z"/>
    <path class="cls-1" d="M193.43,148.03c-.46-.46-.98-.9-1.54-1.31-.41-.31-.85-.62-1.31-.93l-.54-.31-.39-.23-.15-.08h-.08l-.08-.08-11.5,8.49c.93.51,1.88,1.31,2.86,2.39,1.85,2.11,2.78,4.63,2.78,7.56-.05,14.87-.08,25.5-.08,31.88l-7.41,5.56c-2.98-1.75-4.48-3.73-4.48-5.94l.08-35.27c-.21-1.75-.69-3.68-1.47-5.79-.67-1.85-1.49-3.47-2.47-4.86-1.23-1.75-2.68-3.09-4.32-4.01l-11.42,8.49c.93.57,1.85,1.34,2.78,2.32.82.88,1.47,1.78,1.93,2.7.57,1.13.85,2.32.85,3.55v31.88c0,2.73,1.85,5.92,5.56,9.57,3.6,3.45,7.74,6.23,12.43,8.34l22.07-16.36v-38.28c0-1.95-.41-3.78-1.23-5.48-.72-1.39-1.67-2.65-2.86-3.78Z"/>
    <path class="cls-1" d="M226.54,195.42c-1.7-1.59-3.16-3.52-4.4-5.79-.82-1.65-1.49-3.37-2.01-5.17l24.85-19.07.39-.31-15.44-21.38c-12.2,3.19-19.63,11.47-22.31,24.85-.72,3.6-1.08,7.13-1.08,10.57,0,2.93.26,5.79.77,8.57,1.59,9.31,5.33,16.03,11.19,20.15,2.06,1.44,4.32,2.52,6.79,3.24.93.26,1.85.46,2.78.62.72.1,1.41.18,2.08.23l15.75-12.04c-1.96.36-3.81.54-5.56.54-5.56,0-10.16-1.67-13.82-5.02ZM218.43,169.64c0-6.43,1.16-11.63,3.47-15.59l10.5,14.51-13.28,10.19c-.46-3.29-.69-6.33-.69-9.11Z"/>
    <path class="cls-1" d="M293.46,193.49v-31.65c0-3.45-.82-6.51-2.47-9.19-2.06-3.34-5.35-5.89-9.88-7.64l-13.66,10.19c-.36-1.59-1-3.09-1.93-4.48-.72-1.13-1.62-2.16-2.7-3.09-.41-.36-.85-.72-1.31-1.08-.41-.26-.8-.51-1.16-.77l-.46-.23-.31-.15-.23-.15h-.08l-11.42,8.49c.93.51,1.85,1.31,2.78,2.39,1.85,2.11,2.78,4.63,2.78,7.56v32.96c0,6.12,2.68,11.19,8.03,15.21h.08l.08.08,11.42-8.49c-3.7-2.21-5.56-5.53-5.56-9.96v-32.19l7.56-5.48c2.93,1.75,4.4,3.71,4.4,5.87v34.96c0,6.12,2.67,11.19,8.03,15.21h.08l.08.08,11.42-8.49c-3.71-2.21-5.56-5.53-5.56-9.96Z"/>
    <path class="cls-1" d="M322.71,152.28l3.09-7.26h-6.56v-8.72c0-1.96-.44-3.81-1.31-5.56-.67-1.34-1.6-2.6-2.78-3.78-.52-.46-1.03-.88-1.54-1.24-.41-.36-.85-.67-1.31-.93l-.54-.31-.39-.23-.15-.08-.08-.08h-.08l-11.5,8.49c.93.52,1.85,1.29,2.78,2.32.82.98,1.47,2.01,1.93,3.09.62,1.39.93,3.73.93,7.02h-2.7l-3.09,7.26h5.71v47.47c0,1.96.44,3.78,1.31,5.48.67,1.39,1.62,2.65,2.86,3.78.46.46.95.9,1.47,1.31.46.31.9.62,1.31.93l.54.31.39.23.15.08h.15l.08.08,11.42-8.49c-.93-.51-1.85-1.31-2.78-2.39-1.85-2.11-2.78-4.63-2.78-7.56v-41.22h3.47Z"/>
    <path class="cls-1" d="M376.12,200.83c-.82-.93-1.47-1.96-1.93-3.09-.57-1.39-.85-2.88-.85-4.48.05-21.82.08-33.83.08-36.05,0-1.95-.44-3.78-1.31-5.48-.72-1.39-1.67-2.67-2.86-3.86-.46-.41-.98-.82-1.54-1.24-.41-.31-.85-.62-1.31-.93l-.54-.31-.39-.23-.15-.08-.08-.08h-.08l-11.5,8.49c.93.51,1.88,1.31,2.86,2.39.77.93,1.39,1.96,1.85,3.09.62,1.39.93,2.88.93,4.48v32.19l-7.49,5.48c-2.93-1.7-4.4-3.63-4.4-5.79v-35.66c-.21-1.75-.7-3.68-1.47-5.79-.67-1.85-1.49-3.47-2.47-4.86-1.24-1.75-2.68-3.09-4.32-4.01l-11.42,8.49c.93.57,1.85,1.34,2.78,2.32.82.82,1.47,1.72,1.93,2.7.57,1.13.85,2.32.85,3.55v33.04c0,3.45.82,6.51,2.47,9.18,2.11,3.35,5.4,5.89,9.88,7.64l13.82-10.27c.31,1.6.9,3.11,1.78,4.55.72,1.13,1.62,2.16,2.7,3.09.46.36.93.72,1.39,1.08.36.26.72.52,1.08.77l.46.23.31.15.23.15h.08l11.42-8.49c-.93-.51-1.85-1.31-2.78-2.39Z"/>
    <path class="cls-1" d="M414.1,145.02l-13.82,10.19c-.26-1.59-.85-3.09-1.77-4.48-.72-1.13-1.62-2.16-2.7-3.09-.41-.36-.85-.72-1.31-1.08-.41-.26-.8-.51-1.16-.77l-.46-.23-.31-.15-.23-.15h-.08l-11.42,8.49c.93.51,1.85,1.31,2.78,2.39,1.85,2.11,2.78,4.63,2.78,7.56v36.04c0,1.96.44,3.78,1.31,5.48.67,1.39,1.59,2.65,2.78,3.78.51.46,1.03.9,1.54,1.31.41.31.85.62,1.31.93l.54.31.39.23.15.08h.08l.08.08,11.5-8.49c-.93-.51-1.85-1.34-2.78-2.47-.82-.93-1.47-1.96-1.93-3.09-.57-1.44-.85-2.96-.85-4.55v-32.03l7.49-5.48c2.83,1.65,4.3,3.53,4.4,5.63l11.66-8.64c-2.06-3.4-5.38-5.99-9.96-7.8Z"/>
    <path class="cls-1" d="M443.97,139.7c2.83-1.96,5.09-4.63,6.79-8.03-1.18.31-2.32.46-3.4.46-1.96,0-3.76-.49-5.4-1.47-.88-.57-1.7-1.26-2.47-2.08-.57-.62-1.06-1.26-1.47-1.93l-11.58,8.57c3.76,4.43,7.49,6.64,11.19,6.64,2.11,0,4.22-.72,6.33-2.16Z"/>
    <path class="cls-1" d="M448.45,201.06c-1.85-2.11-2.78-4.63-2.78-7.56v-36.04c0-1.96-.44-3.81-1.31-5.56-.67-1.34-1.62-2.6-2.86-3.78-.46-.41-.95-.82-1.47-1.24-.46-.36-.9-.67-1.31-.93l-.54-.31-.39-.23-.15-.08-.15-.08h-.08l-11.42,8.49c.93.51,1.85,1.31,2.78,2.39,1.85,2.11,2.78,4.63,2.78,7.56v36.04c0,1.96.44,3.78,1.31,5.48.67,1.39,1.62,2.65,2.86,3.78.46.46.95.9,1.47,1.31.41.31.85.62,1.31.93l.54.31.39.23.15.08h.08l.08.08,11.5-8.49c-.93-.51-1.85-1.31-2.78-2.39Z"/>
    <path class="cls-1" d="M501.55,200.83c-.82-.93-1.47-1.96-1.93-3.09-.57-1.39-.85-2.88-.85-4.48.05-21.82.08-33.83.08-36.05,0-1.95-.44-3.78-1.31-5.48-.72-1.39-1.67-2.67-2.86-3.86-.46-.41-.98-.82-1.54-1.24-.41-.31-.85-.62-1.31-.93l-.54-.31-.39-.23-.15-.08-.08-.08h-.08l-11.5,8.49c.93.51,1.88,1.31,2.86,2.39.77.93,1.39,1.96,1.85,3.09.62,1.39.93,2.88.93,4.48v32.19l-7.49,5.48c-2.93-1.7-4.4-3.63-4.4-5.79v-35.66c-.21-1.75-.7-3.68-1.47-5.79-.67-1.85-1.49-3.47-2.47-4.86-1.24-1.75-2.68-3.09-4.32-4.01l-11.42,8.49c.93.57,1.85,1.34,2.78,2.32.82.82,1.47,1.72,1.93,2.7.57,1.13.85,2.32.85,3.55v33.04c0,3.45.82,6.51,2.47,9.18,2.11,3.35,5.4,5.89,9.88,7.64l13.82-10.27c.31,1.6.9,3.11,1.78,4.55.72,1.13,1.62,2.16,2.7,3.09.46.36.93.72,1.39,1.08.36.26.72.52,1.08.77l.46.23.31.15.23.15h.08l11.42-8.49c-.93-.51-1.85-1.31-2.78-2.39Z"/>
    <path class="cls-1" d="M577.73,193.49v-31.65c0-3.45-.82-6.51-2.47-9.19-2.06-3.34-5.35-5.89-9.88-7.64l-14.51,10.81c-1.75-4.94-5.53-8.54-11.35-10.81l-13.82,10.19c-.26-1.59-.85-3.09-1.77-4.48-.72-1.13-1.62-2.16-2.7-3.09-.41-.36-.85-.72-1.31-1.08-.41-.26-.8-.51-1.16-.77l-.46-.23-.31-.15-.23-.15h-.08l-11.42,8.49c.93.51,1.85,1.31,2.78,2.39,1.85,2.11,2.78,4.63,2.78,7.56v32.96c0,6.12,2.67,11.19,8.03,15.21h.08l.08.08,11.42-8.49c-3.65-2.21-5.48-5.53-5.48-9.96v-32.19l7.49-5.48c2.93,1.7,4.4,3.65,4.4,5.87v34.96c0,6.12,2.65,11.19,7.95,15.21h.08l.08.08,11.42-8.49c-3.65-2.21-5.48-5.53-5.48-9.96v-32.19l7.41-5.48c2.93,1.7,4.4,3.65,4.4,5.87v34.96c0,6.12,2.67,11.19,8.03,15.21h.08l.08.08,11.42-8.49c-3.7-2.21-5.56-5.53-5.56-9.96Z"/>
  </g>
</svg>